<svg width="172" height="36" viewBox="0 0 172 36" fill="none" xmlns="http://www.w3.org/2000/svg">
<path fill-rule="evenodd" clip-rule="evenodd" d="M23.8998 4.31299L28.4817 12.4105L29.7505 16.0015L28.7637 23.747C28.7637 23.747 27.0719 29.6616 26.8604 29.6616C26.649 29.6616 19.318 31.7036 19.318 31.7036L12.6919 30.0841L7.75754 27.4788L7.33459 17.4802L14.8771 18.3956L19.3884 9.73478L22.772 4.31299H23.8998Z" fill="#FEFEFE"/>
<path fill-rule="evenodd" clip-rule="evenodd" d="M14.2429 0.0176032C15.1593 0.0880161 17.133 0.158429 17.7674 0.158429C18.4019 0.158429 19.2477 0.228842 20.0936 0.228842C20.4461 0.228842 23.7591 0.299255 24.746 0.580906C25.7329 0.862558 26.4378 1.77793 26.6492 2.12999C28.059 4.3832 29.8918 7.90385 31.0196 10.2979C31.5131 11.3541 33.1343 14.241 34.4737 15.2972C36.6589 16.9871 34.0507 18.0433 32.7819 18.2545C32.2885 18.325 31.1606 18.5362 30.3147 18.4658C29.4688 20.7894 29.6098 25.4367 28.9049 27.6195C28.623 28.394 31.654 28.2532 29.3984 29.1685C27.1427 30.0839 25.1689 31.4218 21.9264 32.7596C21.9264 32.7596 20.3051 33.2525 19.8822 33.2525C19.4592 33.2525 16.9216 31.9851 16.1462 32.0555C15.4413 32.1963 17.133 35.9986 14.8069 35.9986C13.3266 35.9986 11.7053 36.1394 12.0577 33.6046C12.2692 32.7596 11.9167 31.2809 11.8463 30.9289C11.7758 30.5768 11.9872 30.5064 11.4233 30.1543C10.2955 29.3798 8.46272 29.0277 6.98242 28.6757C5.92507 28.2532 4.79722 28.5348 5.36115 27.7603C6.34801 26.4929 6.70046 27.549 6.77095 25.5071C6.84144 24.4509 7.26438 19.0995 6.55948 18.2545C3.88085 15.438 -2.60426 19.1699 1.13172 14.5227C1.48418 14.1002 3.10545 12.4103 3.38742 12.199C4.30379 11.2837 6.91193 7.41096 8.95615 4.24238C10.2955 2.12999 11.3528 0.158429 11.7758 0.0880161C12.3397 -0.0528097 12.8331 0.0176032 14.2429 0.0176032ZM15.0888 1.14421C16.0052 1.21462 17.9084 1.35545 17.9084 1.35545C17.9084 1.35545 19.8117 1.28504 19.9526 1.28504C20.0936 1.28504 21.9969 1.28504 22.0674 1.28504C22.2083 1.28504 24.3935 1.28504 24.8165 1.56669C26.6492 3.2566 30.7377 13.9594 32.6409 15.7197C32.9934 16.2126 32.3589 16.4238 32.077 16.4238C31.8655 16.4238 31.3721 15.2972 31.3721 15.2972C31.3016 15.2268 26.4378 6.77724 25.8738 5.65063C25.6624 5.15774 25.0984 3.89031 24.8165 3.53825C24.5345 3.11577 24.323 2.48205 23.7591 2.48205C21.6444 2.12999 16.4281 15.438 14.5249 16.7055C13.961 17.0575 13.1856 17.3392 12.6921 17.2688C12.1987 17.1279 10.366 16.7055 10.084 16.4942C8.32174 15.7901 4.51526 15.5084 3.59889 14.8747C2.753 14.3114 8.74468 9.94582 8.25125 7.97426C10.4365 6.42518 12.3397 1.14421 12.3397 1.14421C12.6217 1.00338 14.1724 1.14421 15.0888 1.14421ZM23.9001 6.35476C25.4509 11.002 29.4688 15.5789 29.2574 16.3534C28.5525 19.3107 28.482 24.4509 27.6361 26.5633C27.3541 27.2674 21.9264 30.5768 21.0805 30.5768C20.7985 30.5768 19.2477 30.788 19.0363 30.2247C18.3314 28.7461 18.2609 27.8307 17.7674 27.6899C15.9347 26.9857 18.1199 30.5064 16.1462 29.8727C15.5118 29.6614 8.53321 28.4644 8.53321 25.9295C8.53321 23.8172 8.53321 22.1977 8.39223 19.9445C8.32174 18.325 8.81517 18.1841 9.80204 18.2545C10.6479 18.2545 11.7758 18.4658 12.9036 18.8178C14.4544 19.3107 15.0183 19.2403 15.2298 19.2403C15.4413 19.2403 15.9347 18.5362 16.0052 17.9729C16.1462 17.4096 19.6002 9.66417 21.9264 6.42518C23.0542 4.87609 23.2657 4.45362 23.9001 6.35476ZM21.7149 24.5213C20.9395 22.1273 21.01 19.7332 22.4903 19.1699C23.6886 18.677 25.2394 18.8178 25.8033 19.7332C26.6492 21.0711 26.1558 22.761 25.2394 24.0284C24.2526 25.5071 22.2788 25.5071 21.7149 24.5213Z" fill="black"/>
<path fill-rule="evenodd" clip-rule="evenodd" d="M12.7624 1.00391C11.9165 1.14473 12.0574 1.77845 11.846 1.98969C10.7181 4.31331 9.30832 6.21446 7.82803 8.25643C6.98214 9.52387 4.02155 13.5374 3.73959 14.1711C3.59861 14.5936 3.17566 14.5936 3.59861 14.8752C4.23302 15.2977 11.0001 16.8468 12.6919 17.2693C13.1853 17.3397 14.5246 17.1989 14.9476 16.706C15.6525 16.0019 17.4147 12.3404 18.0491 11.0025C18.895 9.31263 22.349 2.27134 23.8998 2.48258C24.1113 2.55299 24.5342 3.11629 24.8162 3.53877C25.0982 3.89084 25.6621 5.15827 25.8736 5.65116C27.3538 8.96056 29.4686 12.3404 31.0193 15.509C31.2308 15.9314 30.4554 16.5652 30.6669 16.9876C30.6669 16.9876 31.4423 17.1989 31.7243 17.1989C32.0062 17.1989 33.557 16.4243 33.2045 15.9314C30.7374 12.7629 26.8604 3.60918 24.8162 1.56721C24.3933 1.28556 22.2081 1.28556 22.0671 1.28556H19.9524C19.8114 1.28556 17.9081 1.35597 17.9081 1.35597C17.9081 1.35597 15.3705 1.21514 15.0885 1.14473C14.8066 1.14473 13.5377 1.00391 12.7624 1.00391Z" fill="#F6A708"/>
<path fill-rule="evenodd" clip-rule="evenodd" d="M33.6979 20.5782C32.9225 20.9302 32.1471 21.4231 31.3717 21.7048C31.3012 21.7752 33.4159 22.3385 33.6979 23.1834C34.6848 25.7887 38.3503 26.2816 40.1125 27.197C42.5797 28.6052 42.2272 28.4644 40.606 26.1408C39.9011 25.155 40.042 23.958 40.042 22.5497C40.042 20.8598 43.0731 22.1273 43.0026 20.7894C43.0026 20.6486 41.9453 20.2261 41.8748 20.2261C41.6633 20.2261 46.5271 17.48 44.06 17.5504C41.1699 17.6208 42.8616 18.4658 44.1305 15.0156C44.9764 12.6919 40.2535 16.2126 39.5486 16.9871C38.4208 18.1137 38.7732 18.677 38.2798 19.874C37.1519 22.6906 37.9273 19.8036 33.6979 20.5782Z" fill="black"/>
<path fill-rule="evenodd" clip-rule="evenodd" d="M58.722 11.6364H60.2023H60.4842L60.3432 11.8476C60.2728 12.1293 60.1318 12.2701 60.0613 12.4813C59.9203 12.6222 59.8498 12.763 59.7793 12.9038C59.6383 13.0446 59.5679 13.1151 59.4974 13.2559C59.3564 13.3967 59.2859 13.4671 59.1449 13.6079C58.6515 14.1008 58.0876 14.4529 57.4531 14.6641C56.8892 14.8754 56.1843 15.0162 55.4794 15.0162C54.986 15.0162 54.4926 14.9458 54.0696 14.8754C53.6467 14.7346 53.1532 14.5233 52.7303 14.3121C52.3778 14.1008 51.9549 13.8192 51.6729 13.5375C51.3205 13.1855 51.0385 12.8334 50.8271 12.4813C50.5451 12.0589 50.4041 11.6364 50.2631 11.2139C50.1222 10.721 50.0517 10.2985 50.0517 9.80565C50.0517 9.38317 50.1222 8.89028 50.2631 8.4678C50.4041 8.04533 50.5451 7.62285 50.8271 7.20037C51.0385 6.77789 51.3205 6.42583 51.6729 6.14418C51.9549 5.79211 52.3778 5.51046 52.7303 5.29922C53.1532 5.08798 53.5762 4.87675 54.0696 4.80633C54.4926 4.66551 54.986 4.59509 55.4794 4.59509C56.9597 4.59509 58.299 5.1584 59.3564 6.21459C59.4974 6.42583 59.7088 6.63707 59.9203 6.91872C60.0613 7.20037 60.2023 7.48202 60.3432 7.83409L60.4842 8.11574H60.2023H58.722H58.6515L58.581 8.04533C58.44 7.83409 58.299 7.62285 58.2285 7.48202C58.0876 7.3412 57.9466 7.20037 57.8056 7.05955C57.4531 6.77789 57.1007 6.56666 56.6778 6.42583C56.3253 6.285 55.9024 6.21459 55.4089 6.21459C55.127 6.21459 54.7745 6.21459 54.4926 6.35542C54.1401 6.42583 53.8581 6.49624 53.5762 6.70748C53.2942 6.84831 53.0123 7.05955 52.8008 7.27078C52.5893 7.48202 52.3778 7.69326 52.2369 7.97491C52.0254 8.25656 51.9549 8.53822 51.8844 8.81987C51.7434 9.17193 51.7434 9.45358 51.7434 9.80565C51.7434 10.1577 51.7434 10.4394 51.8844 10.7914C51.9549 11.0731 52.0254 11.3547 52.2369 11.6364C52.3778 11.918 52.5893 12.1293 52.8008 12.3405C53.0123 12.6222 53.2942 12.763 53.5762 12.9742C53.8581 13.1151 54.1401 13.1855 54.4221 13.3263C54.7745 13.3967 55.0565 13.3967 55.4089 13.3967C55.7614 13.3967 56.0433 13.3967 56.3253 13.3263C56.6073 13.2559 56.8892 13.1855 57.1712 13.0446C57.3122 12.9742 57.3827 12.9038 57.5236 12.763C57.6646 12.6926 57.8056 12.6222 57.8761 12.5518C57.9466 12.4813 58.0876 12.3405 58.2285 12.1997C58.299 12.0589 58.44 11.8476 58.581 11.7068L58.6515 11.6364H58.722ZM63.7268 14.5937V6.35542H61.6121H61.4711V6.14418V5.01757V4.80633H61.6121H67.4628H67.6742V5.01757V6.14418V6.35542H67.4628H65.4186V14.5937V14.805H65.2071H63.9383H63.7268V14.5937ZM69.2955 4.80633H70.4939H70.7053V5.01757V6.14418L70.7758 6.07376C70.9168 5.93294 70.9873 5.79211 71.1283 5.7217C71.6217 5.36964 72.1151 5.08798 72.6086 4.87675C73.1725 4.73592 73.7364 4.59509 74.3708 4.59509C74.7233 4.59509 75.1462 4.66551 75.4987 4.73592C75.8511 4.80633 76.2036 4.94716 76.556 5.08798C76.9085 5.29922 77.2609 5.51046 77.5429 5.7217C77.8953 5.93294 78.1773 6.21459 78.4593 6.56666C78.8117 6.98913 79.0937 7.48202 79.3052 8.04533C79.5166 8.60863 79.5871 9.17193 79.5871 9.80565C79.5871 10.2985 79.5871 10.7914 79.4461 11.2139C79.3052 11.6364 79.1642 12.0589 78.8822 12.4813C78.6707 12.8334 78.3888 13.1855 78.0363 13.5375C77.7544 13.8192 77.3314 14.1008 76.979 14.3121C76.556 14.5233 76.1331 14.7346 75.6397 14.805C75.2167 14.9458 74.7938 15.0162 74.3003 15.0162C73.6659 15.0162 73.102 14.9458 72.5381 14.7346C72.0446 14.5233 71.5512 14.2417 71.1283 13.8896C71.0578 13.7488 70.9168 13.6079 70.7758 13.4671V17.9735V18.1848H70.5643H69.2955H69.0841V17.9735V5.01757V4.80633H69.2955ZM74.3003 13.3967C74.5823 13.3967 74.7938 13.3967 75.0757 13.3263C75.2872 13.2559 75.5692 13.1855 75.7806 13.1151C75.9921 13.0446 76.2036 12.9038 76.415 12.763C76.556 12.6222 76.7675 12.4813 76.9085 12.3405C77.1199 12.1997 77.2609 11.9884 77.4019 11.8476C77.4724 11.6364 77.6134 11.4251 77.6839 11.2139C77.7544 11.0027 77.8249 10.7914 77.8953 10.5802C77.9658 10.369 77.9658 10.0873 77.9658 9.80565C77.9658 9.524 77.8953 9.17193 77.8249 8.89028C77.7544 8.60863 77.6134 8.32698 77.4724 8.04533C77.3314 7.76367 77.1199 7.48202 76.9085 7.27078C76.697 7.05955 76.415 6.84831 76.1331 6.70748C75.8511 6.56666 75.5692 6.42583 75.2872 6.35542C75.0052 6.21459 74.6528 6.21459 74.3003 6.21459C74.0184 6.21459 73.6659 6.21459 73.384 6.35542C73.0315 6.42583 72.7495 6.49624 72.4676 6.70748C72.1856 6.84831 71.9742 6.98913 71.6922 7.27078C71.4807 7.48202 71.3397 7.69326 71.1283 7.97491C70.9873 8.25656 70.8463 8.53822 70.7758 8.81987C70.7053 9.17193 70.7053 9.45358 70.7053 9.80565C70.7053 10.1577 70.7053 10.4394 70.7758 10.7914C70.8463 11.0731 70.9873 11.3547 71.1283 11.6364C71.3397 11.918 71.4807 12.1293 71.6922 12.3405C71.9037 12.5518 72.1856 12.763 72.4676 12.9038C72.6791 13.1151 72.961 13.1855 73.3135 13.3263C73.5954 13.3967 73.8774 13.3967 74.2298 13.3967H74.3003ZM86.3542 4.59509C86.8476 4.59509 87.2706 4.66551 87.6935 4.80633C88.1869 4.87675 88.6099 5.08798 88.9623 5.29922C89.3853 5.51046 89.7377 5.79211 90.0902 6.14418C90.3721 6.42583 90.6541 6.77789 90.9361 7.20037C91.1475 7.62285 91.359 8.04533 91.4295 8.4678C91.5705 8.89028 91.641 9.31276 91.641 9.80565C91.641 10.2281 91.5705 10.721 91.4295 11.1435C91.359 11.566 91.1475 11.9884 90.9361 12.4109C90.7246 12.763 90.4426 13.1855 90.0902 13.4671C89.8082 13.8192 89.4558 14.1008 89.0328 14.3121C88.6099 14.5233 88.1869 14.7346 87.764 14.805C87.341 14.9458 86.9181 15.0162 86.4247 15.0162C86.0017 15.0162 85.5083 14.9458 85.0854 14.805C84.6624 14.7346 84.2395 14.5233 83.887 14.3121C83.4641 14.1008 83.1116 13.8192 82.7592 13.4671C82.4772 13.1855 82.1953 12.8334 81.9133 12.4109C81.7018 12.0589 81.5608 11.6364 81.4199 11.2139C81.2789 10.7914 81.2084 10.2985 81.2084 9.87606C81.2084 9.38317 81.2789 8.96069 81.4199 8.53822C81.4904 8.04533 81.7018 7.62285 81.9133 7.27078C82.1953 6.84831 82.4067 6.49624 82.7592 6.14418C83.0411 5.86253 83.3936 5.58087 83.8165 5.29922C84.169 5.08798 84.5919 4.87675 85.0149 4.80633C85.4378 4.66551 85.9312 4.59509 86.3542 4.59509ZM86.4247 6.21459C86.1427 6.21459 85.7903 6.285 85.5083 6.35542C85.1558 6.42583 84.8739 6.56666 84.6624 6.70748C84.3805 6.91872 84.0985 7.05955 83.887 7.27078C83.6756 7.48202 83.5346 7.76367 83.3231 8.04533C83.1821 8.32698 83.1116 8.60863 82.9706 8.89028C82.9002 9.17193 82.9002 9.524 82.9002 9.87606C82.9002 10.1577 82.9002 10.5098 82.9706 10.7914C83.1116 11.0731 83.1821 11.3547 83.3936 11.6364C83.5346 11.918 83.746 12.1997 83.9575 12.4109C84.169 12.6222 84.3805 12.763 84.6624 12.9742C84.9444 13.1151 85.2263 13.1855 85.5083 13.3263C85.8608 13.3967 86.1427 13.3967 86.4952 13.3967C86.7771 13.3967 87.1296 13.3967 87.4115 13.3263C87.6935 13.1855 87.9755 13.1151 88.2574 12.9038C88.5394 12.763 88.7509 12.5518 88.9623 12.3405C89.1738 12.1293 89.3853 11.918 89.5262 11.6364C89.6672 11.3547 89.8082 11.0027 89.8787 10.721C89.9492 10.4394 89.9492 10.0873 89.9492 9.73524C89.9492 9.45358 89.9492 9.10152 89.8787 8.81987C89.8082 8.53822 89.6672 8.25656 89.5262 7.97491C89.3148 7.69326 89.1738 7.48202 88.9623 7.27078C88.7509 7.05955 88.4689 6.84831 88.2574 6.70748C87.9755 6.49624 87.6935 6.42583 87.4115 6.35542C87.1296 6.21459 86.8476 6.21459 86.4952 6.21459H86.4247ZM95.236 12.4109L100.523 4.87675V4.80633H100.664H101.933H102.144V5.01757V14.5937V14.805H101.933H100.664H100.452V14.5937V7.20037L95.236 14.7346L95.1655 14.805H95.095H93.7557H93.6147V14.5937V5.01757V4.80633H93.7557H95.095H95.236V5.01757V12.4109ZM105.88 14.5937V6.35542H103.765H103.624V6.14418V5.01757V4.80633H103.765H109.616H109.757V5.01757V6.14418V6.35542H109.616H107.501V14.5937V14.805H107.36H106.021H105.88V14.5937ZM121.035 10.369H112.577C112.577 10.5098 112.577 10.721 112.647 10.8618C112.718 11.0027 112.718 11.2139 112.788 11.3547C112.929 11.566 113 11.7068 113.141 11.918C113.281 12.0589 113.422 12.2701 113.563 12.4109C113.775 12.5518 113.916 12.6926 114.127 12.8334C114.339 12.9742 114.55 13.0446 114.762 13.1855C114.973 13.2559 115.185 13.3263 115.396 13.3263C115.608 13.3967 115.89 13.3967 116.101 13.3967C117.088 13.3967 117.934 13.0446 118.709 12.4109C118.78 12.2701 118.921 12.1293 119.062 11.918C119.132 11.7772 119.273 11.6364 119.344 11.4251L119.414 11.2843H119.555H120.894H121.176L121.035 11.566C120.965 11.8476 120.824 12.0589 120.683 12.2701C120.612 12.4813 120.472 12.6926 120.401 12.8334C120.26 12.9742 120.19 13.1151 120.049 13.2559C119.908 13.3967 119.696 13.6079 119.555 13.7488C119.344 13.96 119.062 14.1008 118.78 14.2417C118.498 14.4529 118.216 14.5937 117.934 14.6641C117.652 14.805 117.299 14.8754 117.017 14.9458C116.665 15.0162 116.383 15.0162 116.031 15.0162C115.608 15.0162 115.114 14.9458 114.691 14.8754C114.268 14.7346 113.845 14.5233 113.493 14.3121C113.07 14.1008 112.718 13.8192 112.365 13.5375C112.083 13.1855 111.801 12.8334 111.59 12.4109C111.378 12.0589 111.167 11.6364 111.026 11.2139C110.955 10.721 110.885 10.2985 110.885 9.80565C110.885 9.38317 110.955 8.89028 111.026 8.4678C111.167 8.04533 111.378 7.62285 111.59 7.20037C111.801 6.77789 112.083 6.42583 112.365 6.14418C112.718 5.79211 113.07 5.58087 113.493 5.29922C113.845 5.08798 114.268 4.87675 114.691 4.80633C115.114 4.66551 115.608 4.59509 116.031 4.59509C116.454 4.59509 116.806 4.66551 117.229 4.73592C117.581 4.80633 117.934 4.94716 118.286 5.08798C118.639 5.29922 118.991 5.51046 119.273 5.7217C119.555 5.93294 119.837 6.21459 120.119 6.56666C120.331 6.84831 120.542 7.12996 120.683 7.48202C120.824 7.83409 120.965 8.18615 121.106 8.53822C121.106 8.67904 121.106 8.89028 121.176 9.17193C121.176 9.45358 121.176 9.80565 121.247 10.1577V10.369H121.035ZM112.647 8.81987H119.485C119.414 8.60863 119.414 8.4678 119.344 8.32698C119.203 8.04533 119.062 7.83409 118.921 7.62285C118.709 7.41161 118.568 7.20037 118.357 6.98913C118.145 6.84831 117.863 6.70748 117.652 6.56666C117.37 6.42583 117.158 6.35542 116.877 6.285C116.595 6.21459 116.313 6.21459 116.031 6.21459C115.749 6.21459 115.537 6.21459 115.255 6.285C114.973 6.35542 114.762 6.42583 114.48 6.56666C114.268 6.63707 114.057 6.77789 113.845 6.98913C113.634 7.12996 113.422 7.3412 113.281 7.55244C113.07 7.76367 112.929 7.97491 112.859 8.25656C112.718 8.39739 112.647 8.60863 112.647 8.81987ZM127.38 4.73592L130.904 14.5233L131.045 14.805H130.763H129.353H129.212V14.6641L126.534 7.27078L123.855 14.6641L123.785 14.805H123.644H122.234H121.952L122.093 14.5233L125.688 4.73592V4.66551H125.829H127.168H127.309L127.38 4.73592ZM132.032 14.5937V5.01757V4.80633H132.243H133.512H133.724V5.01757V8.4678H135.063C135.627 8.4678 136.05 8.4678 136.473 8.53822C136.825 8.53822 137.178 8.67904 137.46 8.74945C137.601 8.81987 137.742 8.96069 137.883 9.03111C138.024 9.17193 138.165 9.24235 138.306 9.38317C138.447 9.524 138.517 9.73524 138.658 9.87606C138.729 10.0169 138.799 10.2281 138.869 10.369C138.94 10.5802 139.01 10.7914 139.01 11.0027C139.081 11.2139 139.081 11.4251 139.081 11.6364C139.081 12.5518 138.799 13.3263 138.235 13.8896C138.094 14.0304 137.883 14.1712 137.671 14.3121C137.46 14.4529 137.248 14.5233 137.037 14.5937C136.825 14.6641 136.543 14.7346 136.191 14.7346C135.838 14.805 135.486 14.805 135.063 14.805H132.243H132.032V14.5937ZM133.724 9.94647V13.2559H134.711H134.993C135.274 13.2559 135.556 13.2559 135.838 13.2559C135.979 13.2559 136.05 13.1855 136.191 13.1855C136.261 13.1855 136.332 13.1855 136.473 13.1151C136.614 13.0446 136.755 12.9742 136.825 12.9038C136.966 12.8334 137.037 12.6926 137.178 12.6222C137.248 12.4813 137.319 12.3405 137.319 12.1293C137.389 11.9884 137.389 11.7772 137.389 11.6364C137.389 11.1435 137.248 10.7914 137.037 10.5098C136.966 10.4394 136.896 10.369 136.825 10.2985C136.684 10.2281 136.614 10.1577 136.473 10.0873C136.332 10.0169 136.12 10.0169 135.909 10.0169C135.697 9.94647 135.345 9.94647 134.993 9.94647H134.711H133.724ZM142.394 8.89028H147.61V5.01757V4.80633H147.751H149.091H149.232V5.01757V14.5937V14.805H149.091H147.751H147.61V14.5937V10.4394H142.394V14.5937V14.805H142.183H140.914H140.702V14.5937V5.01757V4.80633H140.914H142.183H142.394V5.01757V8.89028ZM151.487 14.5937V5.01757V4.80633H151.628H152.968H153.109V5.01757V8.4678H154.518C155.012 8.4678 155.505 8.4678 155.858 8.53822C156.281 8.53822 156.563 8.67904 156.845 8.74945C156.986 8.81987 157.197 8.96069 157.338 9.03111C157.479 9.17193 157.62 9.24235 157.761 9.38317C157.831 9.524 157.972 9.73524 158.043 9.87606C158.184 10.0169 158.254 10.2281 158.325 10.369C158.395 10.5802 158.395 10.7914 158.466 11.0027C158.466 11.2139 158.466 11.4251 158.466 11.6364C158.466 12.5518 158.184 13.3263 157.69 13.8896C157.479 14.0304 157.338 14.1712 157.126 14.3121C156.915 14.4529 156.704 14.5233 156.422 14.5937C156.21 14.6641 155.928 14.7346 155.576 14.7346C155.294 14.805 154.941 14.805 154.518 14.805H151.628H151.487V14.5937ZM159.453 14.5937V5.01757V4.80633H159.664H160.933H161.144V5.01757V14.5937V14.805H160.933H159.664H159.453V14.5937ZM153.109 9.94647V13.2559H154.095H154.448C154.73 13.2559 155.012 13.2559 155.223 13.2559C155.364 13.2559 155.505 13.1855 155.576 13.1855C155.646 13.1855 155.787 13.1855 155.858 13.1151C155.999 13.0446 156.14 12.9742 156.281 12.9038C156.422 12.8334 156.492 12.6926 156.563 12.6222C156.633 12.4813 156.704 12.3405 156.774 12.1293C156.774 11.9884 156.845 11.7772 156.845 11.6364C156.845 11.1435 156.704 10.7914 156.492 10.5098C156.422 10.4394 156.351 10.369 156.21 10.2985C156.14 10.2281 155.999 10.1577 155.858 10.0873C155.717 10.0169 155.576 10.0169 155.294 10.0169C155.082 9.94647 154.8 9.94647 154.448 9.94647H154.095H153.109ZM165.162 12.4109L170.379 4.87675L170.449 4.80633H170.52H171.859H172V5.01757V14.5937V14.805H171.859H170.52H170.308V14.5937V7.20037L165.092 14.7346V14.805H164.951H163.682H163.471V14.5937V5.01757V4.80633H163.682H164.951H165.162V5.01757V12.4109ZM165.162 1.42651H166.29H166.431V1.56734C166.572 1.77858 166.784 1.98982 166.995 2.06023C167.207 2.20106 167.559 2.27147 167.912 2.27147C168.193 2.27147 168.475 2.20106 168.757 2.06023C168.969 1.98982 169.11 1.77858 169.251 1.56734L169.321 1.42651H169.462H170.52H170.802L170.731 1.70817C170.661 1.9194 170.59 2.06023 170.52 2.20106C170.449 2.41229 170.308 2.55312 170.238 2.62353C169.956 2.9756 169.603 3.18684 169.251 3.39807C168.828 3.5389 168.405 3.60931 167.912 3.60931C167.63 3.60931 167.348 3.60931 167.066 3.5389C166.854 3.5389 166.572 3.39807 166.361 3.32766C166.22 3.25725 166.079 3.11642 165.867 3.04601C165.726 2.90518 165.656 2.76436 165.515 2.62353C165.374 2.55312 165.303 2.41229 165.233 2.20106C165.162 2.06023 165.092 1.9194 165.021 1.70817L164.951 1.42651H165.162ZM58.0171 30.9999H51.109V33.0419V33.1827H50.8975H49.7697H49.5582V33.0419V29.5917V29.4508H49.7697H50.5451L53.8581 21.1421V21.0013H53.9991H55.0565H55.1975L55.2679 21.1421L58.581 29.4508H59.3564H59.5679V29.5917V33.0419V33.1827H59.3564H58.2285H58.0171V33.0419V30.9999ZM56.8187 29.4508L54.563 23.5362L52.3074 29.4508H56.8187ZM61.0482 30.7887V21.2125V21.0013H61.1891H64.1497C64.4317 21.0013 64.6432 21.0013 64.8546 21.0717C65.1366 21.0717 65.3481 21.0717 65.489 21.1421C65.7005 21.1421 65.8415 21.2125 65.9825 21.283C66.1235 21.3534 66.2644 21.4238 66.4054 21.4942C66.6169 21.635 66.8284 21.7758 66.9693 21.9167C67.1103 22.1279 67.2513 22.2687 67.3218 22.48C67.4628 22.6912 67.5333 22.9024 67.5333 23.1137C67.6038 23.3249 67.6742 23.5362 67.6742 23.7474C67.6742 23.9586 67.6038 24.1699 67.5333 24.3811C67.5333 24.5924 67.3923 24.8036 67.3218 25.0148C67.1808 25.2261 67.0398 25.3669 66.8989 25.5077C66.8284 25.5781 66.7579 25.5781 66.6874 25.6486C66.8284 25.6486 66.9693 25.719 67.0398 25.7894C67.2513 26.0006 67.4628 26.1414 67.6742 26.4231C67.8152 26.6343 67.9562 26.916 68.0267 27.1976C68.1677 27.4793 68.1677 27.7609 68.1677 28.0426C68.1677 28.3242 68.1677 28.5355 68.0972 28.7467C68.0267 28.958 67.9562 29.1692 67.8857 29.3804H67.8152C67.7447 29.5917 67.6038 29.8029 67.4628 29.9437C67.3218 30.155 67.1103 30.2958 66.8989 30.4366C66.7579 30.507 66.5464 30.6479 66.4054 30.7183C66.1939 30.7887 66.053 30.7887 65.8415 30.8591C65.63 30.9295 65.4186 30.9295 65.1366 30.9295C64.8546 30.9295 64.5022 30.9999 64.1497 30.9999H61.1891H61.0482V30.7887ZM62.6694 29.4508H64.1497C64.5727 29.4508 64.8546 29.4508 65.1366 29.3804C65.4186 29.3804 65.5595 29.31 65.7005 29.2396C65.9825 29.0988 66.1235 28.958 66.2644 28.7467C66.3349 28.5355 66.4054 28.3242 66.4054 28.0426C66.4054 27.8314 66.4054 27.6905 66.3349 27.5497C66.3349 27.4793 66.2644 27.3385 66.1939 27.1976C66.1235 27.1272 65.9825 26.9864 65.912 26.916C65.771 26.8456 65.63 26.7752 65.489 26.7047C65.3481 26.7047 65.1366 26.6343 64.9251 26.6343C64.7136 26.6343 64.3612 26.5639 64.0792 26.5639H62.6694V29.4508ZM62.6694 25.0852H64.0792C64.4317 25.0852 64.7136 25.0852 64.9251 25.0148C65.1366 25.0148 65.2776 24.9444 65.4186 24.874C65.63 24.8036 65.771 24.6628 65.8415 24.4515C65.912 24.3107 65.9825 24.0291 65.9825 23.8178C65.9825 23.5362 65.912 23.3249 65.8415 23.1841C65.771 22.9729 65.63 22.832 65.4186 22.7616C65.3481 22.6912 65.2776 22.6912 65.2776 22.6912C65.2071 22.6208 65.1366 22.6208 65.0661 22.6208C64.9251 22.5504 64.8546 22.5504 64.6432 22.5504C64.5022 22.5504 64.3612 22.5504 64.1497 22.5504H62.6694V25.0852ZM74.9347 20.7901C75.4282 20.7901 75.8511 20.8605 76.2741 20.9309C76.697 21.0717 77.1199 21.283 77.5429 21.4942C77.9658 21.7054 78.3183 21.9871 78.6707 22.3391C78.9527 22.6208 79.2347 22.9729 79.4461 23.3953C79.7281 23.7474 79.8691 24.1699 80.0101 24.5924C80.151 25.0852 80.2215 25.5077 80.2215 25.9302C80.2215 26.4231 80.151 26.916 80.0101 27.3385C79.8691 27.7609 79.7281 28.1834 79.5166 28.6059C79.2347 28.958 78.9527 29.31 78.6707 29.6621C78.3183 29.9437 77.9658 30.2254 77.6134 30.507C77.1904 30.7183 76.7675 30.9295 76.3446 30.9999C75.9216 31.1408 75.4987 31.2112 75.0052 31.2112C74.5823 31.2112 74.0889 31.1408 73.6659 30.9999C73.243 30.9295 72.82 30.7183 72.3971 30.507C72.0446 30.2958 71.6217 30.0142 71.3397 29.6621C70.9873 29.3804 70.7053 29.0284 70.4939 28.6059C70.2824 28.1834 70.0709 27.8314 70.0004 27.3385C69.8594 26.916 69.789 26.4935 69.789 26.071C69.789 25.5781 69.8594 25.1557 70.0004 24.6628C70.0709 24.2403 70.2824 23.8178 70.4939 23.4657C70.7053 23.0433 70.9873 22.6912 71.3397 22.3391C71.6217 22.0575 71.9742 21.7758 72.3971 21.4942C72.7495 21.283 73.1725 21.0717 73.5954 21.0013C74.0184 20.8605 74.4413 20.7901 74.9347 20.7901ZM75.0052 22.4096C74.6528 22.4096 74.3708 22.48 74.0889 22.5504C73.7364 22.6208 73.4545 22.7616 73.1725 22.9024C72.8905 23.0433 72.6791 23.2545 72.4676 23.4657C72.2561 23.677 72.0446 23.9586 71.9037 24.2403C71.7627 24.5219 71.6217 24.8036 71.5512 25.0852C71.4807 25.3669 71.4807 25.719 71.4807 26.071C71.4807 26.3527 71.4807 26.7047 71.5512 26.9864C71.6217 27.268 71.7627 27.5497 71.9037 27.8314C72.1151 28.113 72.2561 28.3242 72.4676 28.5355C72.6791 28.7467 72.961 28.958 73.243 29.0988C73.5249 29.31 73.8069 29.3804 74.0889 29.4508C74.3708 29.5213 74.7233 29.5917 75.0052 29.5917C75.3577 29.5917 75.6397 29.5213 75.9921 29.4508C76.2741 29.3804 76.556 29.2396 76.838 29.0988C77.0495 28.958 77.3314 28.7467 77.5429 28.5355C77.7544 28.3242 77.8953 28.0426 78.1068 27.7609C78.2478 27.4793 78.3183 27.1976 78.3888 26.916C78.5298 26.5639 78.5298 26.2823 78.5298 25.9302C78.5298 25.5781 78.5298 25.2965 78.3888 25.0148C78.3183 24.7332 78.2478 24.4515 78.0363 24.1699C77.8953 23.8882 77.7544 23.677 77.5429 23.4657C77.3314 23.1841 77.0495 23.0433 76.7675 22.9024C76.556 22.6912 76.2741 22.6208 75.9921 22.48C75.7101 22.4096 75.3577 22.4096 75.0757 22.4096H75.0052ZM82.3362 21.0013H83.6051H83.746V21.1421V22.3391L83.8165 22.1983C83.9575 22.0575 84.0985 21.9871 84.169 21.9167C84.6624 21.4942 85.1558 21.2125 85.7198 21.0717C86.2132 20.8605 86.8476 20.7901 87.4115 20.7901C87.8345 20.7901 88.1869 20.8605 88.5394 20.9309C88.8918 21.0013 89.2443 21.1421 89.5967 21.283C89.9492 21.4238 90.3016 21.635 90.6541 21.9167C90.9361 22.1279 91.218 22.4096 91.5 22.6912C91.8524 23.1841 92.2049 23.677 92.3459 24.2403C92.5573 24.7332 92.6983 25.3669 92.6983 26.0006C92.6983 26.4935 92.6278 26.916 92.4868 27.4089C92.3459 27.8314 92.2049 28.2538 91.9934 28.6059C91.7114 29.0284 91.4295 29.3804 91.1475 29.6621C90.7951 30.0142 90.4426 30.2958 90.0197 30.507C89.5967 30.7183 89.1738 30.9295 88.7509 30.9999C88.2574 31.1408 87.8345 31.2112 87.341 31.2112C86.7066 31.2112 86.1427 31.0703 85.6493 30.9295C85.0854 30.7183 84.5919 30.4366 84.2395 30.0846C84.0985 29.9437 83.9575 29.8029 83.8165 29.6621V29.5917V34.1685V34.3093H83.6756H82.3362H82.1953V34.1685V21.1421V21.0013H82.3362ZM87.341 29.5917C87.623 29.5917 87.8345 29.5213 88.1164 29.5213C88.3279 29.4508 88.6099 29.3804 88.8213 29.31C89.0328 29.1692 89.2443 29.0988 89.4558 28.958C89.6672 28.8171 89.8082 28.6763 90.0197 28.5355C90.1607 28.3947 90.3016 28.1834 90.4426 28.0426C90.5836 27.8314 90.6541 27.6201 90.7246 27.4089C90.8656 27.1976 90.9361 26.9864 90.9361 26.7752C91.0065 26.4935 91.0065 26.2823 91.0065 26.0006C91.0065 25.719 91.0065 25.3669 90.9361 25.0852C90.7951 24.8036 90.7246 24.4515 90.5131 24.1699C90.3721 23.8882 90.1607 23.677 89.9492 23.4657C89.7377 23.2545 89.5262 23.0433 89.2443 22.9024C88.9623 22.6912 88.6099 22.6208 88.3279 22.48C88.046 22.4096 87.6935 22.4096 87.4115 22.4096C87.0591 22.4096 86.7066 22.4096 86.4247 22.48C86.0722 22.6208 85.7903 22.6912 85.5083 22.832C85.2263 23.0433 85.0149 23.1841 84.8034 23.3953C84.5919 23.6066 84.3805 23.8882 84.2395 24.1699C84.028 24.4515 83.9575 24.7332 83.887 25.0148C83.746 25.3669 83.746 25.6486 83.746 26.0006C83.746 26.3527 83.746 26.6343 83.887 26.9864C83.9575 27.268 84.028 27.5497 84.2395 27.8314C84.3805 28.113 84.5214 28.3242 84.7329 28.5355C85.0149 28.7467 85.2263 28.958 85.5083 29.0988C85.7903 29.2396 86.0722 29.3804 86.3542 29.4508C86.6361 29.5213 86.9181 29.5917 87.2706 29.5917H87.341Z" fill="black"/>
</svg>
